<?xml version="1.0" encoding="utf-8"?>
<!-- Generator: Adobe Illustrator 16.0.0, SVG Export Plug-In . SVG Version: 6.00 Build 0)  -->
<!DOCTYPE svg PUBLIC "-//W3C//DTD SVG 1.0//EN" "http://www.w3.org/TR/2001/REC-SVG-20010904/DTD/svg10.dtd">
<svg version="1.0" id="Layer_1" xmlns="http://www.w3.org/2000/svg" xmlns:xlink="http://www.w3.org/1999/xlink" x="0px" y="0px"
	 width="2499px" height="2500px" viewBox="0 0 2499 2500" enable-background="new 0 0 2499 2500" xml:space="preserve">
<path fill="#77BC1F" d="M2272.794,130.365c-35.151,83.973-79.741,163.714-133.444,236.946
	C1904.356,132.317,1585.391,0.175,1253.08,0.175C565.676,0.175,0,566.502,0,1254.883c0,343.376,140.605,672.106,389.268,909.053
	l46.218,41.01c225.88,190.403,511.973,295.206,807.179,295.206c653.555,0,1202.957-512.298,1249.5-1165.202
	C2526.34,1015.333,2432.603,611.092,2272.794,130.365L2272.794,130.365z M567.303,2171.095
	c-20.179,25.062-51.1,39.708-83.321,39.708c-58.911,0-107.081-48.496-107.081-107.407c0-58.91,48.495-107.406,107.081-107.406
	c24.41,0,48.496,8.462,67.373,24.085C597.247,2057.179,604.407,2125.204,567.303,2171.095z M2267.586,1795.497
	c-309.201,412.378-969.591,273.399-1393.034,293.253c0,0-75.185,4.557-150.695,16.926c0,0,28.316-12.043,65.096-26.039
	c297.159-103.501,437.765-123.68,618.403-216.44c340.121-173.153,676.338-552.007,746.314-946.157
	c-129.539,379.179-522.063,704.979-879.76,837.448c-245.083,90.482-687.729,178.36-687.729,178.36l-17.901-9.438
	c-301.39-146.79-310.503-800.019,237.271-1010.927c239.876-92.435,469.336-41.661,728.414-103.501
	c276.654-65.746,596.597-273.399,726.787-544.195C2406.565,697.994,2581.996,1376.285,2267.586,1795.497z"/>
</svg>
